<mxfile host="app.diagrams.net" modified="2024-01-17T06:55:30.494Z" agent="Mozilla/5.0 (Macintosh; Intel Mac OS X 10_15_7) AppleWebKit/537.36 (KHTML, like Gecko) Chrome/120.0.0.0 Safari/537.36" version="22.1.20" etag="5rne3MJ6Us_v-D1JHLql" type="github">
  <diagram name="第 1 页" id="lfYT1q7-guhiJE8OA6Kc">
    <mxGraphModel>
      <root>
        <mxCell id="0" />
        <mxCell id="1" parent="0" />
      </root>
    </mxGraphModel>
  </diagram>
</mxfile>
